# xmcd
#
# Track frame offsets:
# 150
# 14091
# 42778
# 54555
# 67116
# 80036
# 103895
# 119820
# 134465
# 149186
# 165491
# 183003
# 200325
# 232248
# 246717
#
# Disc length: 3504 seconds
#
#
# Revision: 5
# Processed by: cddbd v1.5.2PL0 Copyright (c) Steve Scherf et al.
# Submitted via: FreeRIP 2.951 
#
DISCID=f20dae0f
DTITLE=Various Artist - Eternas II - The best jazz vocals - CD 2
DYEAR=2003
DGENRE=Jazz
TTITLE0=Ella Fitzgerald - Night and day
TTITLE1=Billie Holiday - Body and soul
TTITLE2=Nina Simone - I put a spell on you
TTITLE3=Dinah Washington - Teach me tonight
TTITLE4=Sara Vaughan - Summertime
TTITLE5=Natalie Cole - So many stars
TTITLE6=Blossom Dearie - Just in time
TTITLE7=Anita O´Day - Honeysuckle rose
TTITLE8=Silje Nergaard - Blame it on the sun
TTITLE9=Sarah Vaughan - The man I love
TTITLE10=Shirley Horn - Love for sale
TTITLE11=Margaret Whiting - All the things you are
TTITLE12=Jeane Lee - You go to my head
TTITLE13=Carmen McRae - My foolish heart
TTITLE14=Ella Fitzgerald - Ev´rytime we say goodbye
EXTD=YEAR: 2003
EXTT0=
EXTT1=
EXTT2=
EXTT3=
EXTT4=
EXTT5=
EXTT6=
EXTT7=
EXTT8=
EXTT9=
EXTT10=
EXTT11=
EXTT12=
EXTT13=
EXTT14=
PLAYORDER=
